<?xml version="1.0" encoding="UTF-8"?>
<svg version="1.1" xmlns="http://www.w3.org/2000/svg" width="1024" height="1024">
<path d="M0 0 C337.92 0 675.84 0 1024 0 C1024 337.92 1024 675.84 1024 1024 C686.08 1024 348.16 1024 0 1024 C0 686.08 0 348.16 0 0 Z " fill="#0B0B0A" transform="translate(0,0)"/>
<path d="M0 0 C9.80092076 0.30075028 19.22873276 4.46892179 26.42578125 11.08203125 C29.45744045 14.40310898 31.0513889 16.73963882 31.5 21.3125 C30.50292969 24.28149414 30.50292969 24.28149414 28.921875 27.59765625 C28.63580383 28.21225204 28.34973267 28.82684784 28.05499268 29.46006775 C27.13272425 31.43799605 26.193116 33.40693738 25.25 35.375 C12.74662064 61.62173475 3.35672739 88.94042513 -5.84161377 116.47216797 C-6.97111929 119.84756307 -8.10732537 123.22068482 -9.24372673 126.59376335 C-15.48385745 145.11809579 -21.63032141 163.66691436 -27.5 182.3125 C-26.89595337 182.23638489 -26.29190674 182.16026978 -25.66955566 182.08184814 C-20.91557283 181.48316977 -16.16126612 180.88730147 -11.40625 180.296875 C-7.27034134 179.78308429 -3.13476617 179.26704361 1 178.74414062 C73.6076693 169.56937462 147.00217823 163.3417313 220.20666504 162.34503174 C222.58806486 162.31125077 224.96929843 162.27087796 227.35058594 162.22998047 C247.08234905 161.9098675 266.6836556 162.26757291 286.375 163.625 C287.25303284 163.68385376 288.13106567 163.74270752 289.03570557 163.80334473 C298.38814869 164.44651668 307.66055971 165.36091745 316.9296875 166.77734375 C318.10674759 166.9537011 318.10674759 166.9537011 319.30758667 167.13362122 C329.75182552 168.82937244 336.80591619 174.0033725 343.078125 182.43359375 C345.65923567 186.29816879 345.65923567 186.29816879 346.5 188.3125 C346.17 189.3025 345.84 190.2925 345.5 191.3125 C332.17223692 190.15652055 318.86816691 188.85591526 305.57324219 187.3659668 C218.38158798 177.75203986 124.01030894 189.47863518 23.5 205.3125 C22.72918091 205.4373175 21.95836182 205.56213501 21.16418457 205.69073486 C3.65725803 208.52993249 -13.75191956 211.61290359 -31.06323242 215.484375 C-32.13549072 215.72414063 -33.20774902 215.96390625 -34.3125 216.2109375 C-35.24707031 216.42411621 -36.18164062 216.63729492 -37.14453125 216.85693359 C-39.5 217.3125 -39.5 217.3125 -42.5 217.3125 C-42.66739182 217.85750153 -42.83478363 218.40250305 -43.00724792 218.96401978 C-44.82531151 224.67033294 -47.08898506 229.97115032 -49.73828125 235.3359375 C-50.14153122 236.16276031 -50.54478119 236.98958313 -50.96025085 237.84146118 C-51.80898352 239.57887362 -52.66040611 241.31497438 -53.5144043 243.04980469 C-54.80428552 245.6708084 -56.08545359 248.2959271 -57.36523438 250.921875 C-63.25001867 262.96429691 -69.15592975 274.77735282 -76.8125 285.8125 C-77.38226563 286.63637207 -77.95203125 287.46024414 -78.5390625 288.30908203 C-96.38004037 313.87745862 -119.08090888 335.1621838 -149.9375 342.92578125 C-165.44257662 345.26572421 -182.29642788 343.017964 -195.5 334.3125 C-208.92129078 323.96397843 -219.51587697 310.01307053 -223.5 293.3125 C-225.02462185 277.2330579 -220.31270135 265.6533564 -210.76171875 253.01171875 C-187.76725025 225.29033595 -147.63026724 212.20537432 -114.6020813 201.77133179 C-113.24300708 201.34064885 -111.88530543 200.90561022 -110.52902222 200.46621704 C-103.33612155 198.13954435 -96.40181957 196.1783317 -88.88671875 195.1484375 C-76.87277826 193.60601549 -76.87277826 193.60601549 -67.39355469 186.75878906 C-63.37369003 179.82623523 -61.07835487 172.31384163 -58.83203125 164.671875 C-57.45644917 160.05063161 -55.81353949 155.54601381 -54.125 151.03125 C-53.53623844 149.45143731 -52.94753392 147.87160335 -52.35888672 146.29174805 C-52.06914978 145.51471527 -51.77941284 144.7376825 -51.480896 143.93710327 C-46.87396792 131.49202406 -42.65358213 118.91465672 -38.5 106.3125 C-38.93394829 107.138069 -38.93394829 107.138069 -39.37666321 107.98031616 C-48.43651897 125.17521267 -58.4068181 142.82004675 -71.5 157.3125 C-72.16032227 158.04436523 -72.16032227 158.04436523 -72.83398438 158.79101562 C-86.72922977 173.98488209 -86.72922977 173.98488209 -97.375 174.5 C-106.88561551 172.42495662 -116.24519171 166.71776985 -122.5 159.3125 C-127.23775663 151.71154627 -127.59162325 143.07300901 -125.95092773 134.41503906 C-125.19453389 131.51590564 -124.34447087 128.66804297 -123.4375 125.8125 C-122.9583313 124.24858521 -122.9583313 124.24858521 -122.46948242 122.65307617 C-121.50217486 119.53186223 -120.50686367 116.42115342 -119.5 113.3125 C-119.22768555 112.46123535 -118.95537109 111.6099707 -118.67480469 110.73291016 C-110.97265006 86.91436027 -100.50947058 64.00149211 -90.19555664 41.22265625 C-86.44810852 32.91113875 -82.94566165 24.55771508 -79.77336121 16.00740051 C-77.70814979 10.52064979 -77.70814979 10.52064979 -75.5 8.3125 C-65.88415643 6.87680113 -57.84827035 9.75165488 -50.0625 15.25 C-47.10541337 17.64440213 -44.83602505 19.6606982 -43.5 23.3125 C-43.87974745 29.15225267 -45.73472839 33.51790844 -48.296875 38.65625 C-49.09255103 40.29588789 -49.88820439 41.93553678 -50.68383789 43.57519531 C-51.10263214 44.42907837 -51.52142639 45.28296143 -51.95291138 46.16271973 C-54.15591579 50.66316597 -56.31991022 55.18217964 -58.48046875 59.703125 C-58.91342758 60.6090741 -59.34638641 61.51502319 -59.79246521 62.44842529 C-65.85898201 75.20182538 -71.32793713 88.17238086 -76.5 101.3125 C-76.74854736 101.94087769 -76.99709473 102.56925537 -77.25317383 103.2166748 C-78.98596424 107.60705949 -80.66207092 112.015473 -82.3125 116.4375 C-82.95360718 118.09894043 -82.95360718 118.09894043 -83.60766602 119.79394531 C-86.38153542 127.4668213 -87.00066742 134.1805984 -86.5 142.3125 C-74.27230741 138.49134606 -68.00982928 125.54836485 -61.5 115.3125 C-61.00870605 114.54389648 -60.51741211 113.77529297 -60.01123047 112.98339844 C-39.47201051 80.72508456 -20.18638866 46.92549947 -8.5078125 10.37890625 C-5.25073822 0.46881591 -5.25073822 0.46881591 0 0 Z " fill="#EBEAE8" transform="translate(506.5,397.6875)"/>
<path d="M0 0 C0.72189514 -0.00974854 1.44379028 -0.01949707 2.18756104 -0.02954102 C47.75039247 -0.5171178 47.75039247 -0.5171178 59.8359375 11.04296875 C63.29155994 14.92550958 65.32598651 17.73244493 65.2265625 23.11376953 C64.64654049 27.55686068 62.68558097 31.57915159 60.94921875 35.67578125 C60.02533528 37.92288679 59.1022116 40.1703048 58.1796875 42.41796875 C57.66083069 43.67162654 57.14178094 44.9252045 56.62255859 46.17871094 C53.44700634 53.86356155 50.35523766 61.58263125 47.26171875 69.30078125 C46.92324921 70.14505676 46.58477966 70.98933228 46.23605347 71.85919189 C34.96312701 100.0177002 24.20347882 128.34693275 14.94921875 157.23828125 C21.21921875 157.23828125 27.48921875 157.23828125 33.94921875 157.23828125 C31.85369659 161.42932556 29.63608256 163.38762465 26.01171875 166.11328125 C25.49287109 166.52191406 24.97402344 166.93054688 24.43945312 167.3515625 C21.77179291 169.38799277 19.34674618 171.07012547 16.23657227 172.38574219 C11.73209187 174.35003943 8.72596153 175.86222139 6.26049805 180.22998047 C4.87240403 184.03353122 3.77603549 187.82306326 2.76171875 191.73828125 C2.35802686 193.17106211 1.95081888 194.60285648 1.5402832 196.03369141 C0.49683763 199.70945338 -0.49426942 203.39728078 -1.47399902 207.0904541 C-2.20137278 209.79905541 -2.96525032 212.49643001 -3.73330688 215.19372559 C-8.1682029 230.77793077 -11.75892057 246.42920144 -14.55126953 262.38769531 C-15.01356356 265.02588942 -15.49605184 267.65949294 -15.984375 270.29296875 C-17.54428946 278.91800704 -18.43389022 287.31019231 -18.64453125 296.078125 C-19.05078125 299.23828125 -19.05078125 299.23828125 -20.45703125 301.1171875 C-24.47080056 303.94059875 -28.28593681 303.76045598 -33.05078125 303.23828125 C-43.22749323 300.35305012 -51.5856897 295.42594474 -56.80078125 286.11328125 C-59.94075918 278.22406016 -57.9384677 268.878851 -56.17578125 260.86328125 C-55.96236084 259.86796387 -55.74894043 258.87264648 -55.52905273 257.84716797 C-53.33315929 247.94899509 -50.74174172 238.15355954 -48.11328125 228.36328125 C-47.90858215 227.59671204 -47.70388306 226.83014282 -47.49298096 226.04034424 C-44.43029506 214.62304487 -40.89341207 203.4163926 -37.05078125 192.23828125 C-37.63746582 192.45742188 -38.22415039 192.6765625 -38.82861328 192.90234375 C-47.01222611 195.92115351 -55.27109559 198.69590586 -63.54736328 201.44726562 C-65.91514022 202.23474225 -68.28183369 203.02541199 -70.6484375 203.81640625 C-71.4189595 204.07262756 -72.18948151 204.32884888 -72.98335266 204.59283447 C-74.51662321 205.10430621 -76.04837837 205.62034454 -77.57853699 206.14105225 C-80.97481657 207.28470191 -84.28286535 208.29130302 -87.7824707 209.09082031 C-95.75517732 210.95317627 -99.16084855 213.68607846 -103.52709961 220.61523438 C-104.17428955 221.72833984 -104.82147949 222.84144531 -105.48828125 223.98828125 C-106.20339539 225.15617988 -106.92163526 226.32216974 -107.64282227 227.48632812 C-109.47406647 230.4651704 -111.25648175 233.46993622 -113.02294922 236.48754883 C-114.62865611 239.22259019 -116.26453101 241.93954382 -117.89453125 244.66015625 C-121.35235191 250.47905408 -124.71932696 256.3462965 -128.05078125 262.23828125 C-128.51564941 263.0576416 -128.98051758 263.87700195 -129.45947266 264.72119141 C-131.96706793 269.15161406 -134.43690495 273.60079024 -136.86962891 278.07275391 C-137.66358735 279.52839908 -138.46283568 280.98117023 -139.26708984 282.43115234 C-155.30414398 310.42362012 -155.30414398 310.42362012 -162.67578125 341.23828125 C-162.96319001 347.15069001 -162.96319001 347.15069001 -164.05078125 348.23828125 C-177.8159784 348.36319229 -188.70416478 342.40305078 -198.41796875 332.9296875 C-204.20723174 326.64208135 -207.9513611 321.31309871 -207.6328125 312.51171875 C-202.88503909 285.80947635 -178.93217992 256.7765498 -163.05078125 235.23828125 C-163.81519531 235.51502686 -164.57960938 235.79177246 -165.3671875 236.0769043 C-173.91597229 239.16632299 -182.47753419 242.21748597 -191.05078125 245.23828125 C-191.94812988 245.55651855 -192.84547852 245.87475586 -193.77001953 246.20263672 C-212.59545157 252.81118497 -212.59545157 252.81118497 -220.25390625 249.19921875 C-229.92649301 242.59084841 -234.81885346 232.97635149 -237.6484375 221.8984375 C-238.17728643 218.40187319 -238.15714003 214.95135208 -238.11328125 211.42578125 C-238.10876953 210.73291016 -238.10425781 210.04003906 -238.09960938 209.32617188 C-238.08791281 207.63017057 -238.06998049 205.93421422 -238.05078125 204.23828125 C-234.05078125 204.23828125 -234.05078125 204.23828125 -232.30078125 205.23828125 C-225.65484064 208.19203263 -217.4839552 205.45409891 -210.7578125 203.89453125 C-209.66949127 203.64973526 -208.58117004 203.40493927 -207.45986938 203.15272522 C-203.92575829 202.35611531 -200.39448212 201.54768566 -196.86328125 200.73828125 C-191.98636231 199.62978087 -187.10846261 198.52563418 -182.23046875 197.421875 C-180.41569283 197.00989113 -180.41569283 197.00989113 -178.56425476 196.58958435 C-171.20248206 194.92521412 -163.83006224 193.33819119 -156.43359375 191.8359375 C-154.71637921 191.4831253 -152.99917503 191.13026266 -151.28198242 190.77734375 C-148.90956603 190.2906515 -146.53681669 189.81017254 -144.15908813 189.35009766 C-142.01383574 188.93466054 -139.8742199 188.49699956 -137.734375 188.0546875 C-136.55415771 187.82209229 -135.37394043 187.58949707 -134.15795898 187.34985352 C-129.0244133 185.51336153 -126.14539528 181.60648695 -123.02734375 177.296875 C-122.48916016 176.55888672 -121.95097656 175.82089844 -121.39648438 175.06054688 C-120.82865234 174.27357422 -120.26082031 173.48660156 -119.67578125 172.67578125 C-118.4292053 170.96554793 -117.18178162 169.25593224 -115.93359375 167.546875 C-115.29325195 166.6688623 -114.65291016 165.79084961 -113.99316406 164.88623047 C-110.88104838 160.64364541 -107.71590284 156.44138443 -104.55078125 152.23828125 C-99.66527488 145.74026115 -94.80737863 139.22321841 -89.98828125 132.67578125 C-89.41319824 131.89444824 -88.83811523 131.11311523 -88.24560547 130.30810547 C-85.36815003 126.39576861 -82.49514465 122.48020243 -79.625 118.5625 C-73.49315423 110.20342307 -67.29247585 101.90583959 -60.98828125 93.67578125 C-54.9414645 85.77819323 -49.05613129 77.78313525 -43.26171875 69.69921875 C-39.90042358 65.01409041 -36.47846132 60.37495291 -33.05078125 55.73828125 C-31.3014452 53.36505271 -29.55294077 50.99121376 -27.8046875 48.6171875 C-26.62677226 47.01952518 -25.44705751 45.42318815 -24.265625 43.828125 C-10.24879537 26.45151221 -10.24879537 26.45151221 -7.05078125 5.23828125 C-7.24542969 4.48417969 -7.44007813 3.73007812 -7.640625 2.953125 C-7.77597656 2.38722656 -7.91132813 1.82132812 -8.05078125 1.23828125 C-6.13356932 -0.67893068 -2.61285914 0.02838997 0 0 Z " fill="#EBEBE9" transform="translate(367.05078125,296.76171875)"/>
<path d="M0 0 C4.49501494 3.79116919 7.86169773 8.4581963 10.1953125 13.8515625 C10.78264895 21.09537868 7.53296173 26.67966103 3.8828125 32.6640625 C3.08617187 34.0097229 3.08617187 34.0097229 2.2734375 35.38256836 C1.15846539 37.2611324 0.03644147 39.13552736 -1.09228516 41.00585938 C-2.79327091 43.83259019 -4.46441162 46.67509389 -6.12890625 49.5234375 C-7.18656394 51.32086363 -8.24512494 53.11775861 -9.3046875 54.9140625 C-9.79622314 55.75235596 -10.28775879 56.59064941 -10.79418945 57.4543457 C-15.32787062 65.03808568 -15.32787062 65.03808568 -18.8046875 67.8515625 C-19.4646875 67.8515625 -20.1246875 67.8515625 -20.8046875 67.8515625 C-24.94877563 59.56338624 -21.57695303 46.12185247 -18.89453125 37.8359375 C-17.6516358 34.43245319 -16.362487 31.12294146 -14.8046875 27.8515625 C-29.12711577 34.07090505 -38.95526907 44.79809499 -45.3671875 58.9765625 C-47.90037082 66.13454839 -47.95532546 73.904788 -44.8984375 80.91015625 C-42.6513978 84.89865172 -39.70674356 88.3280233 -36.8046875 91.8515625 C-21.4526689 110.91584769 -21.4526689 110.91584769 -20.8046875 120.8515625 C-20.7221875 122.0271875 -20.6396875 123.2028125 -20.5546875 124.4140625 C-20.89130388 140.51044579 -28.58977673 153.79241438 -39.8046875 164.8515625 C-40.7946875 165.85703125 -40.7946875 165.85703125 -41.8046875 166.8828125 C-49.36325421 174.07564211 -57.20621977 176.49161154 -67.55297852 176.39477539 C-79.17026841 175.86975407 -91.06041886 171.56252611 -99.38671875 163.27734375 C-103.89660219 158.11762119 -105.32752041 154.09692307 -105.1875 147.3359375 C-104.54519395 143.1675023 -103.01122065 141.55930161 -99.8046875 138.8515625 C-96.8557054 138.45394694 -95.35620654 138.50767416 -92.8125 140.09375 C-92.19117188 140.63257813 -91.56984375 141.17140625 -90.9296875 141.7265625 C-84.83207793 146.55906055 -78.42802982 147.68018667 -70.8046875 146.8515625 C-64.02723921 145.33933055 -58.86005975 143.04093323 -54.9921875 137.0390625 C-52.92778903 131.49778239 -53.25476196 127.54076102 -55.6796875 122.2265625 C-58.63397722 116.69673814 -62.47389117 111.88358859 -66.35546875 106.9921875 C-69.4021762 103.08540474 -72.14841663 99.03033009 -74.8046875 94.8515625 C-77.15607348 97.85060398 -79.08037167 100.94676606 -80.95703125 104.26171875 C-81.56248779 105.32455078 -82.16794434 106.38738281 -82.79174805 107.48242188 C-83.43539307 108.61486328 -84.07903809 109.74730469 -84.7421875 110.9140625 C-91.13420833 122.08910562 -97.77987832 133.0614556 -104.8046875 143.8515625 C-105.31128906 144.6353125 -105.81789063 145.4190625 -106.33984375 146.2265625 C-126.00350996 176.58450332 -126.00350996 176.58450332 -135.8046875 179.8515625 C-144.52812584 180.92009611 -150.96982965 177.91573189 -158.1171875 173.1640625 C-163.164065 169.12454578 -165.28068409 164.55233656 -166.1796875 158.203125 C-166.57686239 149.14257288 -164.10889339 140.53348114 -161.8046875 131.8515625 C-162.45953125 132.95371094 -163.114375 134.05585938 -163.7890625 135.19140625 C-188.22739944 175.96880191 -188.22739944 175.96880191 -203.8046875 185.8515625 C-204.7946875 186.5115625 -205.7846875 187.1715625 -206.8046875 187.8515625 C-215.14626331 189.49771788 -221.9006237 186.30211603 -228.8046875 181.8515625 C-234.97434164 177.14895967 -239.22040635 171.54366441 -240.8046875 163.8515625 C-241.28739748 157.08616201 -240.50399423 150.9052437 -238.8671875 144.3515625 C-238.64611328 143.4548584 -238.42503906 142.5581543 -238.19726562 141.63427734 C-230.19405747 110.45911382 -216.17042336 81.05608375 -203.1796875 51.7265625 C-202.73636078 50.72418549 -202.29303406 49.72180847 -201.83627319 48.6890564 C-200.56662076 45.8222028 -199.29204718 42.95759489 -198.015625 40.09375 C-197.44451241 38.80358223 -197.44451241 38.80358223 -196.86186218 37.48735046 C-193.14938277 29.19033551 -193.14938277 29.19033551 -190.8046875 25.8515625 C-183.99838442 23.86687721 -176.87455498 26.38117368 -170.68359375 29.23046875 C-165.45878405 32.17252577 -159.73882653 35.58381979 -158.02001953 41.59643555 C-157.74980905 45.68114794 -158.74703788 47.52471949 -160.71484375 51.09375 C-161.03338821 51.68602386 -161.35193268 52.27829773 -161.68013 52.88851929 C-162.36945758 54.16969273 -163.06533767 55.44735778 -163.76702881 56.72180176 C-165.66028499 60.17178193 -167.48944742 63.65519453 -169.31640625 67.140625 C-169.69388 67.85996216 -170.07135376 68.57929932 -170.46026611 69.32043457 C-191.77569273 110.0724429 -191.77569273 110.0724429 -202.8046875 153.8515625 C-187.29485671 147.87862766 -179.29011955 133.28154726 -170.8046875 119.8515625 C-170.42521973 119.25456543 -170.04575195 118.65756836 -169.65478516 118.04248047 C-154.70817131 94.34628997 -140.82487108 68.92204635 -130.609375 42.8359375 C-130.34233765 42.15575058 -130.07530029 41.47556366 -129.8001709 40.77476501 C-128.50079743 37.45100856 -127.2255968 34.12067734 -125.98730469 30.77368164 C-123.47130796 24.17910787 -121.48063617 19.2020836 -115.8046875 14.8515625 C-109.14502503 13.38643676 -102.5664615 16.66435334 -96.8046875 19.8515625 C-93.22962357 22.62954753 -89.9808402 25.62879959 -86.8046875 28.8515625 C-86.4746875 29.1815625 -86.1446875 29.5115625 -85.8046875 29.8515625 C-84.72869025 36.68222362 -87.80020237 41.63597776 -90.87316895 47.59942627 C-92.50977893 50.78760943 -94.08883696 54.00379691 -95.6640625 57.22265625 C-96.16845856 58.25332214 -96.16845856 58.25332214 -96.68304443 59.30480957 C-110.26002999 87.3084946 -122.11088312 116.97232954 -130.8046875 146.8515625 C-115.0985439 136.45391995 -104.43180395 119.24687256 -93.9296875 103.9765625 C-93.40656982 103.21666016 -92.88345215 102.45675781 -92.34448242 101.67382812 C-91.3248178 100.17496175 -90.31818814 98.66714282 -89.32495117 97.15063477 C-88.28405218 95.57649861 -87.20361028 94.02800365 -86.09106445 92.50366211 C-81.38228373 85.63413022 -81.22829393 80.32047581 -81.7421875 72.1640625 C-82.07305576 61.51489535 -81.34360791 53.62769878 -76.8046875 43.8515625 C-76.37027344 42.82546875 -75.93585938 41.799375 -75.48828125 40.7421875 C-66.67036634 21.34779915 -50.56390305 6.70611473 -30.8046875 -1.0859375 C-20.24361031 -4.98033471 -9.74322554 -6.61035559 0 0 Z " fill="#EBEAE8" transform="translate(757.8046875,365.1484375)"/>
<path d="M0 0 C15.30698504 -0.82492734 28.11719959 1.3567723 40 12 C45.86552708 18.30428698 45.86552708 18.30428698 46.09448242 22.89404297 C45.67723834 29.71792877 42.89549435 35.30999633 39.9375 41.375 C38.84006429 43.68959168 37.74377151 46.0047255 36.6484375 48.3203125 C36.05308631 49.56934853 35.45770808 50.81837167 34.86230469 52.06738281 C31.52341735 59.09464272 28.29714368 66.17433181 25.0625 73.25 C24.72193573 73.99385956 24.38137146 74.73771912 24.03048706 75.50411987 C18.86129558 86.80169181 13.84186451 98.15359236 8.94042969 109.57006836 C6.00629832 116.40038139 3.0284272 123.2083031 -0.01171875 129.9921875 C-0.35522369 130.75890274 -0.69872864 131.52561798 -1.05264282 132.31556702 C-1.75009284 133.87205395 -2.44755177 135.42853689 -3.14501953 136.98501587 C-9.80475779 151.85381732 -16.14146479 166.79365494 -22 182 C-21.57332031 181.34257812 -21.14664063 180.68515625 -20.70703125 180.0078125 C-10.13332841 163.91834302 1.48831656 148.59431348 13.21386719 133.33398438 C14.77139341 131.29872594 16.31565736 129.25471112 17.8515625 127.203125 C22.69473829 120.75741405 27.822136 114.72330145 33.3359375 108.8515625 C35.83897344 106.17235981 38.26680606 103.44093537 40.6875 100.6875 C51.59071596 88.57714228 51.59071596 88.57714228 59 86 C65.13078249 85.86066403 70.07896565 89.71663451 75 93 C75.59425781 93.39316406 76.18851563 93.78632813 76.80078125 94.19140625 C81.16881586 97.43074975 84.18675242 101.9132789 86 107 C86.41013812 112.50043102 85.46226074 115.95573955 83.03515625 120.875 C82.72655167 121.51266296 82.41794708 122.15032593 82.09999084 122.80731201 C81.44000926 124.16986928 80.77446338 125.52974324 80.1038208 126.88708496 C78.33518309 130.47577848 76.61939843 134.08953575 74.90234375 137.703125 C74.5607019 138.42066956 74.21906006 139.13821411 73.86706543 139.87750244 C60.84111046 167.37647785 45.45045087 202.9295533 47 234 C47.66 234.99 48.32 235.98 49 237 C59.51924632 236.54264146 67.90015046 229.23734662 75 222 C78.1265491 218.42909546 81.07657241 214.73806878 84 211 C85.49748143 209.10217667 86.99734045 207.20622603 88.5 205.3125 C89.1496875 204.48363281 89.799375 203.65476562 90.46875 202.80078125 C90.9740625 202.20652344 91.479375 201.61226562 92 201 C92.33 201 92.66 201 93 201 C91.94514623 221.04222157 80.88948805 239.86625331 66.5625 253.5 C58.90605472 259.82897053 51.27255503 262.9198599 41.2734375 262.48046875 C31.87323606 261.10072558 24.50278386 256.79011617 18 250 C17.50757813 249.49339844 17.01515625 248.98679687 16.5078125 248.46484375 C10.23018793 241.50002359 9.37833987 234.6652631 9.6484375 225.63671875 C11.63052552 192.51873727 25.10591694 156.20223138 40 127 C32.55023363 134.44976637 25.94760714 142.60444374 19.55859375 150.96142578 C18.47869417 152.37388842 17.39510486 153.78353479 16.30859375 155.19091797 C-7.35235079 185.87864302 -30.25535535 219.16217256 -40.43359375 256.96826172 C-41.18961203 259.68015141 -42.07795309 262.34057765 -43 265 C-52.15609732 266.28185363 -59.88930134 261.3024282 -67.3515625 256.48046875 C-71.78451207 253.05672259 -73.78638927 249.42537803 -75 244 C-75.58970207 235.99120841 -73.73304652 229.26605387 -71.4375 221.625 C-71.24193512 220.96484894 -71.04637024 220.30469788 -70.84487915 219.62454224 C-56.96422031 172.87983802 -38.79895603 127.27838507 -21.37854004 81.77200317 C-15.6967024 66.92296925 -10.18429619 52.03128165 -5 37 C-4.7102832 36.17419434 -4.42056641 35.34838867 -4.12207031 34.49755859 C-1.11732104 25.884066 1.52671326 17.23774023 1 8 C0.65066406 7.30390625 0.30132813 6.6078125 -0.05859375 5.890625 C-1 4 -1 4 -0.625 1.75 C-0.41875 1.1725 -0.2125 0.595 0 0 Z " fill="#ECEBE9" transform="translate(814,268)"/>
<path d="M0 0 C9.39204372 0.1964349 17.13640857 4.06969113 24 10.375 C26.55629641 13.39607757 27.05315866 14.55752669 26.79589844 18.51367188 C25.86754219 23.01762356 24.24350994 26.6267926 22.203125 30.71875 C21.40744897 32.35838789 20.61179561 33.99803678 19.81616211 35.63769531 C19.39736786 36.49157837 18.97857361 37.34546143 18.54708862 38.22521973 C16.34408421 42.72566597 14.18008978 47.24467964 12.01953125 51.765625 C11.58657242 52.6715741 11.15361359 53.57752319 10.70753479 54.51092529 C4.64101799 67.26432538 -0.82793713 80.23488086 -6 93.375 C-6.24854736 94.00337769 -6.49709473 94.63175537 -6.75317383 95.2791748 C-8.48596424 99.66955949 -10.16207092 104.077973 -11.8125 108.5 C-12.23990479 109.60762695 -12.66730957 110.71525391 -13.10766602 111.85644531 C-15.88153542 119.5293213 -16.50066742 126.2430984 -16 134.375 C-7.9440944 131.8575295 -3.85409369 126.04454903 1.1875 119.5625 C3.23587304 117.09032564 5.38555562 115.23263153 8 113.375 C8.66 113.375 9.32 113.375 10 113.375 C10.639375 113.21 11.27875 113.045 11.9375 112.875 C14.64387927 112.21890806 17.22143434 112.375 20 112.375 C20.87201659 114.72944479 21.09796695 116.04558613 20.375 118.4765625 C18.41939932 122.59887985 15.92386566 126.28538796 13.375 130.0625 C12.83230469 130.8683252 12.28960937 131.67415039 11.73046875 132.50439453 C-8.47982882 162.26177745 -8.47982882 162.26177745 -23 166.375 C-32.23580061 166.82189358 -41.01910905 161.29481752 -48 155.625 C-53.05924675 150.77693778 -55.61250578 145.64506426 -56.24804688 138.64160156 C-56.33375521 131.21774704 -55.17832874 124.93011383 -52.9375 117.875 C-52.6180542 116.83239014 -52.2986084 115.78978027 -51.96948242 114.71557617 C-51.00217486 111.59436223 -50.00686367 108.48365342 -49 105.375 C-48.72768555 104.52373535 -48.45537109 103.6724707 -48.17480469 102.79541016 C-40.47265006 78.97686027 -30.00947058 56.06399211 -19.69555664 33.28515625 C-15.94810852 24.97363875 -12.44566165 16.62021508 -9.27336121 8.06990051 C-7.12478183 2.36166195 -6.26574017 0.08900199 0 0 Z " fill="#EAE9E8" transform="translate(436,405.625)"/>
<path d="M0 0 C19.73176311 -0.32011296 39.33306966 0.03759244 59.02441406 1.39501953 C60.34146332 1.48330017 60.34146332 1.48330017 61.68511963 1.57336426 C71.03756275 2.21653621 80.30997378 3.13093698 89.57910156 4.54736328 C90.36380829 4.66493484 91.14851501 4.78250641 91.95700073 4.90364075 C102.40123958 6.59939197 109.45533025 11.77339203 115.72753906 20.20361328 C118.30864973 24.06818832 118.30864973 24.06818832 119.14941406 26.08251953 C118.81941406 27.07251953 118.48941406 28.06251953 118.14941406 29.08251953 C104.82165099 27.92654008 91.51758098 26.62593479 78.22265625 25.13598633 C62.84624561 23.4405524 47.60857216 22.8093104 32.14941406 22.77001953 C31.08169769 22.76673645 30.01398132 22.76345337 28.91390991 22.7600708 C8.05140919 22.7398528 -12.71884456 23.73052884 -33.53808594 24.95751953 C-34.28358704 25.00121548 -35.02908813 25.04491142 -35.79718018 25.08993149 C-51.63570354 26.02125453 -67.46498278 27.02948699 -83.26701355 28.46847534 C-90.48088709 29.1132113 -97.6058116 29.31210745 -104.85058594 29.08251953 C-104.70950847 27.62371844 -104.56256179 26.16548402 -104.41308594 24.70751953 C-104.331875 23.89541016 -104.25066406 23.08330078 -104.16699219 22.24658203 C-103.85058594 20.08251953 -103.85058594 20.08251953 -102.85058594 18.08251953 C-102.19058594 18.08251953 -101.53058594 18.08251953 -100.85058594 18.08251953 C-100.80160156 17.44443359 -100.75261719 16.80634766 -100.70214844 16.14892578 C-100.62738281 15.32263672 -100.55261719 14.49634766 -100.47558594 13.64501953 C-100.40597656 12.82130859 -100.33636719 11.99759766 -100.26464844 11.14892578 C-100.12800781 10.46701172 -99.99136719 9.78509766 -99.85058594 9.08251953 C-99.19058594 8.75251953 -98.53058594 8.42251953 -97.85058594 8.08251953 C-97.85058594 7.42251953 -97.85058594 6.76251953 -97.85058594 6.08251953 C-94.74483655 4.01201994 -93.79813952 3.79450121 -90.23193359 3.59594727 C-89.28905487 3.53923859 -88.34617615 3.48252991 -87.37472534 3.42410278 C-85.83523727 3.34589798 -85.83523727 3.34589798 -84.26464844 3.26611328 C-83.19312531 3.20495331 -82.12160217 3.14379333 -81.01760864 3.08078003 C-77.50407426 2.88370775 -73.98998251 2.70102015 -70.47558594 2.52001953 C-68.0410123 2.3894662 -65.60644201 2.25885059 -63.171875 2.12817383 C-44.50095577 1.14479462 -25.83932664 0.36959445 -7.1439209 0.11505127 C-4.76252108 0.0812703 -2.38128751 0.04089749 0 0 Z " fill="#EBEAE8" transform="translate(733.8505859375,559.91748046875)"/>
<path d="M0 0 C-1.45866011 4.95944436 -3.57255984 9.16981214 -6.125 13.625 C-6.52605957 14.32866699 -6.92711914 15.03233398 -7.34033203 15.75732422 C-24.06988822 44.80141763 -47.29846228 72.31706682 -80.375 82.4375 C-86.86384459 84.12140598 -91.85467948 85.12756773 -98.3125 82.8125 C-101.372639 80.74868532 -102.38365982 79.29288787 -104 76 C-105.11551955 68.82349088 -104.67254592 62.32682415 -100.67578125 56.1796875 C-97.36076394 51.8678468 -93.81358866 47.87662318 -90 44 C-89.00033203 42.98099609 -89.00033203 42.98099609 -87.98046875 41.94140625 C-77.496147 31.97829361 -64.12763821 25.13387498 -51.14111328 19.01074219 C-49.68541155 18.32355802 -48.23336245 17.62859393 -46.78466797 16.92675781 C-11.77332028 0 -11.77332028 0 0 0 Z " fill="#0C0C0B" transform="translate(418,628)"/>
<path d="M0 0 C1 2 1 2 0.43359375 3.94726562 C0.10488281 4.75873047 -0.22382813 5.57019531 -0.5625 6.40625 C-0.93906738 7.35459717 -1.31563477 8.30294434 -1.70361328 9.2800293 C-2.1314209 10.34261963 -2.55922852 11.40520996 -3 12.5 C-7.24063295 23.29260188 -11.2838952 34.14294112 -15.18621826 45.06222534 C-15.8136217 46.81674003 -16.44290408 48.57058392 -17.07403564 50.32376099 C-20.97834711 61.17316787 -24.69388636 72.06306444 -28.203125 83.046875 C-29.25300863 86.28752106 -30.30536743 89.5273539 -31.3583374 92.76699829 C-32.03247418 94.86931996 -32.69333225 96.97594904 -33.34039307 99.08676147 C-34.24478233 102.03644965 -35.19196912 104.96920385 -36.1484375 107.90234375 C-36.53228607 109.22120575 -36.53228607 109.22120575 -36.92388916 110.56671143 C-38.86507829 116.32842543 -38.86507829 116.32842543 -41.94734192 118.15231323 C-44.28726533 118.9649752 -46.57188417 119.51546963 -49 120 C-50.40158336 120.3611976 -51.80256721 120.72473112 -53.20288086 121.09082031 C-54.622405 121.42476295 -56.04310401 121.75374471 -57.46484375 122.078125 C-58.22422745 122.25382019 -58.98361115 122.42951538 -59.76600647 122.61053467 C-61.35105178 122.97569781 -62.93662504 123.33857648 -64.52270508 123.69921875 C-66.95790145 124.25465329 -69.39004884 124.82230214 -71.82226562 125.390625 C-73.36962245 125.74553023 -74.91714283 126.09972333 -76.46484375 126.453125 C-77.19186996 126.62386536 -77.91889618 126.79460571 -78.66795349 126.97052002 C-83.77080559 128.11459721 -83.77080559 128.11459721 -86 127 C-81.0184034 119.32130996 -76.01123179 111.65936664 -71 104 C-70.46546204 103.18263367 -69.93092407 102.36526733 -69.38018799 101.52313232 C-65.68705722 95.87701774 -61.98813169 90.23474667 -58.2840271 84.5958252 C-57.02852687 82.68312162 -55.77443716 80.76949129 -54.5218811 78.8548584 C-47.21855969 67.69419449 -39.75834168 56.70017639 -31.86938477 45.9440918 C-29.02236738 42.05706915 -26.27870103 38.10419122 -23.5625 34.125 C-22.87034142 33.11136635 -22.87034142 33.11136635 -22.16419983 32.07725525 C-21.74907639 31.46910477 -21.33395294 30.86095428 -20.90625 30.234375 C-16.91247997 24.39516909 -12.83803964 18.61213565 -8.76977539 12.82470703 C-5.79228787 8.58359037 -2.85018558 4.32780022 0 0 Z " fill="#0C0C0B" transform="translate(379,344)"/>
<path d="M0 0 C1 2 1 2 0.35083008 4.56616211 C-0.81495742 8.02825355 -1.99044262 11.48607648 -3.1875 14.9375 C-3.78788086 16.74637695 -3.78788086 16.74637695 -4.40039062 18.59179688 C-4.79806641 19.74615234 -5.19574219 20.90050781 -5.60546875 22.08984375 C-5.96793701 23.15066162 -6.33040527 24.21147949 -6.70385742 25.30444336 C-8.09318501 28.19379463 -9.29593284 29.34773255 -12 31 C-13.32 30.34 -14.64 29.68 -16 29 C-14.67097843 25.48702613 -13.12056623 22.27870044 -11.25 19.0234375 C-10.7240625 18.105625 -10.198125 17.1878125 -9.65625 16.2421875 C-9.1096875 15.29601562 -8.563125 14.34984375 -8 13.375 C-7.18015625 11.94414063 -7.18015625 11.94414063 -6.34375 10.484375 C-4.30067385 6.92902189 -2.27525351 3.41288026 0 0 Z " fill="#100F0F" transform="translate(468,503)"/>
<path d="M0 0 C0.66 0.33 1.32 0.66 2 1 C0.87802953 3.4389358 -0.24743424 5.87615255 -1.375 8.3125 C-1.69210937 9.00279297 -2.00921875 9.69308594 -2.3359375 10.40429688 C-3.73807723 13.42766067 -5.1477087 16.22156305 -7 19 C-8.65 18.67 -10.3 18.34 -12 18 C-10.70508043 13.15997274 -8.88505615 10.35803629 -5.4375 6.75 C-2.35343369 3.63136653 -2.35343369 3.63136653 0 0 Z " fill="#0D0D0C" transform="translate(853,394)"/>
<path d="M0 0 C2.14116225 3.6798682 1.83172517 5.8873375 1.2265625 10.07421875 C0.73922469 16.36759838 1.49917587 22.72043592 2 29 C-2.57131518 23.23616782 -2.38904509 18.12042996 -2 11 C-1.47526647 7.29948791 -0.79120444 3.65225622 0 0 Z " fill="#DBDBDA" transform="translate(311,557)"/>
<path d="M0 0 C1 2 1 2 0.47094727 3.87939453 C0.02319946 4.99483643 0.02319946 4.99483643 -0.43359375 6.1328125 C-0.75263672 6.93847656 -1.07167969 7.74414062 -1.40039062 8.57421875 C-1.74263672 9.41597656 -2.08488281 10.25773437 -2.4375 11.125 C-2.77587891 11.97449219 -3.11425781 12.82398438 -3.46289062 13.69921875 C-4.30176957 15.80232371 -5.14771125 17.90230155 -6 20 C-7.98 19.34 -9.96 18.68 -12 18 C-8.15717678 11.87584657 -4.27631922 5.83134439 0 0 Z " fill="#131312" transform="translate(379,344)"/>
<path d="M0 0 C-0.33 0.66 -0.66 1.32 -1 2 C-2.19238281 1.96519531 -3.38476562 1.93039062 -4.61328125 1.89453125 C-6.17967342 1.86639247 -7.74608081 1.8390924 -9.3125 1.8125 C-10.09818359 1.78736328 -10.88386719 1.76222656 -11.69335938 1.73632812 C-12.45068359 1.72666016 -13.20800781 1.71699219 -13.98828125 1.70703125 C-14.68477783 1.6913208 -15.38127441 1.67561035 -16.09887695 1.65942383 C-18.54489783 2.09761557 -19.42702086 3.13437358 -21 5 C-21 4.34 -21 3.68 -21 3 C-22.98 3 -24.96 3 -27 3 C-26.67 2.01 -26.34 1.02 -26 0 C-5.69863014 -2.84931507 -5.69863014 -2.84931507 0 0 Z " fill="#E6E6E5" transform="translate(561,573)"/>
<path d="M0 0 C0.66 0 1.32 0 2 0 C1.67 0.66 1.34 1.32 1 2 C0.67 1.34 0.34 0.68 0 0 Z M-1 2 C-0.01 2.33 0.98 2.66 2 3 C1.01 3.495 1.01 3.495 0 4 C0.33 5.65 0.66 7.3 1 9 C-0.65 9.66 -2.3 10.32 -4 11 C-3.67 11.66 -3.34 12.32 -3 13 C-3.99 13.33 -4.98 13.66 -6 14 C-6.99 15.485 -6.99 15.485 -8 17 C-8.66 16.67 -9.32 16.34 -10 16 C-10 12.04 -10 8.08 -10 4 C-9.67 4 -9.34 4 -9 4 C-9 6.31 -9 8.62 -9 11 C-5.46766245 9.82255415 -5.13691925 9.04394359 -3.3125 5.9375 C-2.87550781 5.20402344 -2.43851562 4.47054687 -1.98828125 3.71484375 C-1.66214844 3.14894531 -1.33601563 2.58304688 -1 2 Z " fill="#E8E7E5" transform="translate(390,531)"/>
<path d="M0 0 C1 2 1 2 0.61035156 3.77172852 C-0.16437902 6.03994414 -0.94628721 8.304362 -1.75 10.5625 C-2.01554687 11.35591797 -2.28109375 12.14933594 -2.5546875 12.96679688 C-2.82023437 13.72154297 -3.08578125 14.47628906 -3.359375 15.25390625 C-3.60139648 15.94814697 -3.84341797 16.6423877 -4.09277344 17.35766602 C-5 19 -5 19 -8 20 C-8.66 19.67 -9.32 19.34 -10 19 C-8.40376856 14.60616294 -6.21975667 10.71004193 -3.875 6.6875 C-3.50246094 6.04232422 -3.12992187 5.39714844 -2.74609375 4.73242188 C-1.83367787 3.15324055 -0.91724491 1.57638136 0 0 Z " fill="#0E0E0E" transform="translate(468,503)"/>
<path d="M0 0 C0.33 0 0.66 0 1 0 C1.33 1.65 1.66 3.3 2 5 C2.66 4.67 3.32 4.34 4 4 C5.00638148 8.83063111 4.95210332 11.9679352 3.546875 16.80078125 C2.55280616 20.79835808 2.31911261 24.90192225 2 29 C1.67 29 1.34 29 1 29 C0.89847201 22.2314676 0.96973056 15.69675136 2 9 C1.34 9.99 0.68 10.98 0 12 C0 8.04 0 4.08 0 0 Z " fill="#040404" transform="translate(737,484)"/>
<path d="M0 0 C0.99 0.66 1.98 1.32 3 2 C3.79454579 9.0184878 2.36409901 16.3746855 0 23 C-0.99 23.33 -1.98 23.66 -3 24 C-3.33 23.01 -3.66 22.02 -4 21 C-3.525625 20.62875 -3.05125 20.2575 -2.5625 19.875 C1.65083007 14.81900391 0.09066805 6.22587293 0 0 Z " fill="#E5E4E3" transform="translate(734,484)"/>
<path d="M0 0 C0.99 0 1.98 0 3 0 C1.84946537 5.397721 0.55821694 10.70206239 -1 16 C-1.34135927 17.33130115 -1.67925956 18.66358148 -2 20 C-2.66 19.67 -3.32 19.34 -4 19 C-2.89309248 12.59406714 -1.66054831 6.28636144 0 0 Z " fill="#121212" transform="translate(359,524)"/>
<path d="M0 0 C0.33 0 0.66 0 1 0 C1.12117188 0.94101562 1.24234375 1.88203125 1.3671875 2.8515625 C1.53476562 4.09679687 1.70234375 5.34203125 1.875 6.625 C2.03742188 7.85476563 2.19984375 9.08453125 2.3671875 10.3515625 C2.95483689 13.73961517 3.81988122 16.77698651 5 20 C4.01 20.33 3.02 20.66 2 21 C-1.53505014 13.78849772 -0.99459989 7.86093409 0 0 Z " fill="#161515" transform="translate(282,681)"/>
<path d="M0 0 C5.15171623 -0.09038099 9.91913204 0.15318867 15 1 C15.33 1.99 15.66 2.98 16 4 C10.25 4.125 10.25 4.125 8 3 C5.6670134 2.95977609 3.33293334 2.95679753 1 3 C0.67 2.01 0.34 1.02 0 0 Z " fill="#171716" transform="translate(815,585)"/>
<path d="M0 0 C0.66 0.66 1.32 1.32 2 2 C1.63834656 6.41217199 0.94621815 10.67443132 0 15 C-0.99 15 -1.98 15 -3 15 C-4.33495946 12.33008107 -3.77924641 10.9616317 -3.1875 8.0625 C-2.93033203 6.74958984 -2.93033203 6.74958984 -2.66796875 5.41015625 C-2 3 -2 3 0 0 Z " fill="#171716" transform="translate(738,491)"/>
<path d="M0 0 C2.31 0.33 4.62 0.66 7 1 C7 3.97 7 6.94 7 10 C6.34 10 5.68 10 5 10 C4.67 9.01 4.34 8.02 4 7 C3.01 7.495 3.01 7.495 2 8 C0.23537317 4.91190305 0 3.76687864 0 0 Z " fill="#131311" transform="translate(736,482)"/>
<path d="M0 0 C2 2 2 2 2.265625 4.49609375 C2.26046875 5.46675781 2.2553125 6.43742188 2.25 7.4375 C2.25515625 8.40558594 2.2603125 9.37367188 2.265625 10.37109375 C2 13 2 13 0 16 C-1 15 -1 15 -1.1328125 12.890625 C-1.10695587 4.15108452 -1.10695587 4.15108452 0 0 Z " fill="#D1D1D0" transform="translate(518,514)"/>
<path d="M0 0 C1.22329074 3.66987221 0.88021006 6.33967822 0.5625 10.1875 C0.46066406 11.45980469 0.35882813 12.73210938 0.25390625 14.04296875 C0.12822266 15.50669922 0.12822266 15.50669922 0 17 C-2.82283845 14.58789201 -2.98279197 14.17494834 -3.375 10.1875 C-3.24325111 6.22771383 -2.0476063 3.41267717 0 0 Z " fill="#DBDBDA" transform="translate(314,688)"/>
<path d="M0 0 C1.4216868 4.26506039 -0.34613318 7.20037743 -1.9375 11.1875 C-2.22818359 11.93708984 -2.51886719 12.68667969 -2.81835938 13.45898438 C-3.53725036 15.30924477 -4.26754653 17.15506648 -5 19 C-6.31333653 15.05999041 -5.25795008 12.23587758 -4.1875 8.375 C-4.00896484 7.68148438 -3.83042969 6.98796875 -3.64648438 6.2734375 C-3.16562727 4.49582856 -2.589199 2.74469528 -2 1 C-1.34 0.67 -0.68 0.34 0 0 Z " fill="#F1F1F0" transform="translate(516,464)"/>
<path d="M0 0 C1 3 1 3 -0.43359375 6.35546875 C-1.09148807 7.6380304 -1.75989743 8.91524057 -2.4375 10.1875 C-2.77587891 10.84169922 -3.11425781 11.49589844 -3.46289062 12.16992188 C-4.29969098 13.78459299 -5.14869746 15.39292763 -6 17 C-7 15 -7 15 -6.0625 11.875 C-5.711875 10.92625 -5.36125 9.9775 -5 9 C-5.66 8.67 -6.32 8.34 -7 8 C-6.67 7.34 -6.34 6.68 -6 6 C-4.68 6 -3.36 6 -2 6 C-1.34 4.02 -0.68 2.04 0 0 Z " fill="#F1F0F0" transform="translate(532,427)"/>
<path d="M0 0 C8.91 1.98 8.91 1.98 18 4 C13.7988135 6.800791 10.80639289 5.89098099 6 5 C3.97975201 4.3974699 1.96766531 3.75679435 0 3 C0 2.01 0 1.02 0 0 Z " fill="#1C1C1C" transform="translate(319,736)"/>
<path d="M0 0 C0.33 0 0.66 0 1 0 C1 3.63 1 7.26 1 11 C3.475 11.99 3.475 11.99 6 13 C6 13.33 6 13.66 6 14 C3.6875 14.25 3.6875 14.25 1 14 C-1.1769508 12.19838554 -1.89562676 10.82520089 -2.25 8.0234375 C-2.3125 5.875 -2.3125 5.875 -2 2 C-1.34 1.34 -0.68 0.68 0 0 Z " fill="#111110" transform="translate(862,492)"/>
<path d="M0 0 C0.66 0.99 1.32 1.98 2 3 C1.67 3.33 1.34 3.66 1 4 C1.66 4.66 2.32 5.32 3 6 C-0.96 6 -4.92 6 -9 6 C-5.83922605 1.78563473 -4.8270487 1.28721299 0 0 Z " fill="#F3F3F2" transform="translate(648,582)"/>
<path d="M0 0 C-6.6 1.32 -13.2 2.64 -20 4 C-14.51643878 -1.48356122 -7.09592038 -3.54796019 0 0 Z " fill="#1C1C1B" transform="translate(236,484)"/>
<path d="M0 0 C0.125 2.375 0.125 2.375 0 5 C-0.66 5.66 -1.32 6.32 -2 7 C-2.71408334 8.98356483 -3.38617742 10.98315437 -4 13 C-6 10 -6 10 -7 7 C-5.8203125 5.17578125 -5.8203125 5.17578125 -4.125 3.3125 C-3.57070313 2.68988281 -3.01640625 2.06726563 -2.4453125 1.42578125 C-1 0 -1 0 0 0 Z " fill="#E5E5E3" transform="translate(907,469)"/>
<path d="M0 0 C0.66 0.66 1.32 1.32 2 2 C1.34 2 0.68 2 0 2 C-0.20625 2.5775 -0.4125 3.155 -0.625 3.75 C-2.53702696 6.87877139 -4.81919401 8.24731098 -8 10 C-8.99 9.67 -9.98 9.34 -11 9 C-7.36548742 5.95715225 -3.71232945 2.94802633 0 0 Z " fill="#E3E3E2" transform="translate(390,675)"/>
<path d="M0 0 C0.99 0 1.98 0 3 0 C1.125 7.75 1.125 7.75 0 10 C-0.66 10 -1.32 10 -2 10 C-1.67 10.99 -1.34 11.98 -1 13 C-1.99 13.33 -2.98 13.66 -4 14 C-3.52188823 12.22888156 -3.0424722 10.45811517 -2.5625 8.6875 C-2.29566406 7.70136719 -2.02882813 6.71523438 -1.75390625 5.69921875 C-1.21920575 3.78482474 -0.62855462 1.88566385 0 0 Z " fill="#161616" transform="translate(513,475)"/>
<path d="M0 0 C1.65 0 3.3 0 5 0 C3.25 3.875 3.25 3.875 1 5 C0.34 4.67 -0.32 4.34 -1 4 C-2.87056791 3.7724985 -4.74685958 3.59037189 -6.625 3.4375 C-7.62789063 3.35371094 -8.63078125 3.26992188 -9.6640625 3.18359375 C-10.43492187 3.12300781 -11.20578125 3.06242187 -12 3 C-12 2.67 -12 2.34 -12 2 C-6.06 1.505 -6.06 1.505 0 1 C0 0.67 0 0.34 0 0 Z " fill="#E2E2E0" transform="translate(396,454)"/>
<path d="M0 0 C0.33 0 0.66 0 1 0 C1.042721 1.66611905 1.04063832 3.33382885 1 5 C0.67 5.33 0.34 5.66 0 6 C-0.36760731 8.32817964 -0.70241581 10.6618385 -1 13 C-1.66 13 -2.32 13 -3 13 C-2.88610125 11.20759337 -2.75852313 9.41605165 -2.625 7.625 C-2.55539062 6.62726562 -2.48578125 5.62953125 -2.4140625 4.6015625 C-2 2 -2 2 0 0 Z " fill="#131212" transform="translate(352,566)"/>
<path d="M0 0 C-2.99356256 1.99570837 -4.07168976 2.31645208 -7.5 2.625 C-8.66015625 2.73714844 -8.66015625 2.73714844 -9.84375 2.8515625 C-11.55915219 2.96965178 -13.28053795 3 -15 3 C-15 2.34 -15 1.68 -15 1 C-9.42567486 -0.66251802 -5.6932495 -1.18609365 0 0 Z " fill="#E4E4E2" transform="translate(174,542)"/>
<path d="M0 0 C0.66 0.33 1.32 0.66 2 1 C2 1.66 2 2.32 2 3 C1.34 3 0.68 3 0 3 C0.020625 3.9075 0.04125 4.815 0.0625 5.75 C0.0110245 8.42672588 -0.2215017 10.46988052 -1 13 C-1.99 13 -2.98 13 -4 13 C-3.71517632 11.58194169 -3.42181856 10.16559621 -3.125 8.75 C-2.96257813 7.96109375 -2.80015625 7.1721875 -2.6328125 6.359375 C-2.00849925 4.03168856 -1.15161458 2.10968048 0 0 Z " fill="#171616" transform="translate(779,506)"/>
<path d="M0 0 C0.99 0 1.98 0 3 0 C2.44894091 3.9492568 1.61064629 7.34920174 0 11 C-0.99 11 -1.98 11 -3 11 C-2.01 7.37 -1.02 3.74 0 0 Z " fill="#E0E0DF" transform="translate(345,440)"/>
<path d="M0 0 C0.33 0 0.66 0 1 0 C1 2.31 1 4.62 1 7 C2.32 6.67 3.64 6.34 5 6 C5 6.66 5 7.32 5 8 C5.66 8.33 6.32 8.66 7 9 C6.01 9.33 5.02 9.66 4 10 C3.01 11.485 3.01 11.485 2 13 C1.34 12.67 0.68 12.34 0 12 C0 8.04 0 4.08 0 0 Z " fill="#DDDCDB" transform="translate(380,535)"/>
<path d="M0 0 C0.66 0.99 1.32 1.98 2 3 C1.25 6.125 1.25 6.125 0 9 C-0.99 9.495 -0.99 9.495 -2 10 C-1.34 11.65 -0.68 13.3 0 15 C-0.99 15.33 -1.98 15.66 -3 16 C-4.49828872 12.11764181 -3.43110582 9.56550712 -2.0625 5.75 C-1.68222656 4.67234375 -1.30195313 3.5946875 -0.91015625 2.484375 C-0.45962891 1.25460937 -0.45962891 1.25460937 0 0 Z " fill="#E5E4E3" transform="translate(355,411)"/>
<path d="M0 0 C-0.33 0.99 -0.66 1.98 -1 3 C-2.4370809 3.05422947 -3.87475462 3.09289723 -5.3125 3.125 C-6.11300781 3.14820313 -6.91351562 3.17140625 -7.73828125 3.1953125 C-10 3 -10 3 -13 1 C-8.61414671 0.29826347 -4.44209357 -0.10834375 0 0 Z " fill="#20201F" transform="translate(589,594)"/>
<path d="M0 0 C3.96 0.99 3.96 0.99 8 2 C8 2.99 8 3.98 8 5 C4.7 4.67 1.4 4.34 -2 4 C-1.34 2.68 -0.68 1.36 0 0 Z " fill="#D9D8D6" transform="translate(595,588)"/>
<path d="M0 0 C1.33804688 0.04060547 1.33804688 0.04060547 2.703125 0.08203125 C3.37859375 0.11683594 4.0540625 0.15164063 4.75 0.1875 C3.76 1.6725 3.76 1.6725 2.75 3.1875 C-0.0703125 3.48046875 -0.0703125 3.48046875 -3.375 3.375 C-5.01855469 3.33439453 -5.01855469 3.33439453 -6.6953125 3.29296875 C-7.53835938 3.25816406 -8.38140625 3.22335937 -9.25 3.1875 C-6.10408067 0.38704377 -4.182936 -0.16511589 0 0 Z " fill="#131313" transform="translate(724.25,582.8125)"/>
<path d="M0 0 C0.66 0.33 1.32 0.66 2 1 C2 1.66 2 2.32 2 3 C2.66 3.33 3.32 3.66 4 4 C4 4.66 4 5.32 4 6 C2.35 6.66 0.7 7.32 -1 8 C-1 7.34 -1 6.68 -1 6 C-1.66 5.67 -2.32 5.34 -3 5 C-2.01 3.35 -1.02 1.7 0 0 Z " fill="#F3F1F0" transform="translate(687,398)"/>
<path d="M0 0 C0.66 0.33 1.32 0.66 2 1 C2 1.66 2 2.32 2 3 C1.01 3 0.02 3 -1 3 C-1.268125 3.61875 -1.53625 4.2375 -1.8125 4.875 C-3 7 -3 7 -6 9 C-4.125 3.25 -4.125 3.25 -3 1 C-2.01 0.67 -1.02 0.34 0 0 Z " fill="#111110" transform="translate(467,614)"/>
<path d="M0 0 C0.99 0.33 1.98 0.66 3 1 C2.34 1 1.68 1 1 1 C1.061875 1.9075 1.12375 2.815 1.1875 3.75 C0.98313144 7.29238832 0.47346304 8.52653696 -2 11 C-2.66 11 -3.32 11 -4 11 C-3.52269162 9.5410574 -3.04308958 8.08286504 -2.5625 6.625 C-2.29566406 5.81289063 -2.02882812 5.00078125 -1.75390625 4.1640625 C-1 2 -1 2 0 0 Z " fill="#121211" transform="translate(214,605)"/>
<path d="M0 0 C0 0.33 0 0.66 0 1 C-1.98 1 -3.96 1 -6 1 C-6 1.66 -6 2.32 -6 3 C-8.3125 3.625 -8.3125 3.625 -11 4 C-11.99 3.34 -12.98 2.68 -14 2 C-4.58997722 -1.62870159 -4.58997722 -1.62870159 0 0 Z " fill="#E0E0DE" transform="translate(389,603)"/>
<path d="M0 0 C4.29 0.33 8.58 0.66 13 1 C13 1.33 13 1.66 13 2 C11.42074025 2.39180108 9.83631206 2.76280736 8.25 3.125 C7.36828125 3.33382812 6.4865625 3.54265625 5.578125 3.7578125 C2.67124507 4.03088304 1.43338652 3.53508028 -1 2 C-0.67 1.34 -0.34 0.68 0 0 Z " fill="#DEDEDC" transform="translate(331,596)"/>
<path d="M0 0 C7.14893617 -0.56737589 7.14893617 -0.56737589 11 2 C4.565 2.495 4.565 2.495 -2 3 C-1.34 2.01 -0.68 1.02 0 0 Z " fill="#141413" transform="translate(492,576)"/>
<path d="M0 0 C0 0.99 0 1.98 0 3 C-2.5 5.1875 -2.5 5.1875 -5 7 C-3.70700306 4.11562221 -2.34058637 2.12780579 0 0 Z M-7 8 C-6.01 8.66 -5.02 9.32 -4 10 C-5.32 10.99 -6.64 11.98 -8 13 C-8.33 12.01 -8.66 11.02 -9 10 C-8.34 9.34 -7.68 8.68 -7 8 Z " fill="#1B1B1B" transform="translate(728,401)"/>
<path d="M0 0 C0.66 0 1.32 0 2 0 C2 0.66 2 1.32 2 2 C1.34 2 0.68 2 0 2 C0.33 2.99 0.66 3.98 1 5 C0.34 5 -0.32 5 -1 5 C-0.814375 5.598125 -0.62875 6.19625 -0.4375 6.8125 C0 9 0 9 -1 12 C-1.99 12 -2.98 12 -4 12 C-3.52494322 10.18641846 -3.04483958 8.37415821 -2.5625 6.5625 C-2.29566406 5.55316406 -2.02882813 4.54382813 -1.75390625 3.50390625 C-1 1 -1 1 0 0 Z " fill="#121312" transform="translate(488,551)"/>
<path d="M0 0 C0.99 0 1.98 0 3 0 C2.74438677 2.3431213 2.40729228 4.67843403 2 7 C1.01 7.495 1.01 7.495 0 8 C-0.66 7.34 -1.32 6.68 -2 6 C-1.64644564 3.73725212 -1.02455574 2.04911148 0 0 Z " fill="#111110" transform="translate(590,505)"/>
<path d="M0 0 C0.99 0 1.98 0 3 0 C3 0.66 3 1.32 3 2 C3.66 2.33 4.32 2.66 5 3 C4.236875 3.2475 3.47375 3.495 2.6875 3.75 C-0.2364045 5.10995558 -1.30004356 6.31585826 -3 9 C-3.66 8.67 -4.32 8.34 -5 8 C-4.24266726 6.6589523 -3.46867264 5.32730219 -2.6875 4 C-2.25824219 3.2575 -1.82898438 2.515 -1.38671875 1.75 C-0.70029297 0.88375 -0.70029297 0.88375 0 0 Z " fill="#20201F" transform="translate(657,501)"/>
<path d="M0 0 C0.66 0.33 1.32 0.66 2 1 C0.68 4.63 -0.64 8.26 -2 12 C-2.33 12 -2.66 12 -3 12 C-3.125 4.25 -3.125 4.25 -2 2 C-1.34 2 -0.68 2 0 2 C0 1.34 0 0.68 0 0 Z " fill="#141414" transform="translate(841,422)"/>
<path d="M0 0 C-2 2 -2 2 -5.375 2.25 C-8.63523324 2.02515633 -10.30632641 1.7239511 -13 0 C-4.57142857 -1.28571429 -4.57142857 -1.28571429 0 0 Z " fill="#E3E3E2" transform="translate(501,579)"/>
<path d="M0 0 C0.66 0.99 1.32 1.98 2 3 C0.02 5.64 -1.96 8.28 -4 11 C-4.66 10.34 -5.32 9.68 -6 9 C-5.566875 8.62875 -5.13375 8.2575 -4.6875 7.875 C-2.53847015 5.48718905 -1.35242016 2.8980432 0 0 Z " fill="#141414" transform="translate(436,522)"/>
<path d="M0 0 C0.33 0.66 0.66 1.32 1 2 C0.34 2 -0.32 2 -1 2 C-0.7215625 3.1446875 -0.7215625 3.1446875 -0.4375 4.3125 C0 7 0 7 -1 10 C-1.99 10 -2.98 10 -4 10 C-3.71872579 8.51882199 -3.42466268 7.04006751 -3.125 5.5625 C-2.96257813 4.73878906 -2.80015625 3.91507812 -2.6328125 3.06640625 C-2.42398438 2.38449219 -2.21515625 1.70257813 -2 1 C-1.34 0.67 -0.68 0.34 0 0 Z " fill="#121211" transform="translate(869,461)"/>
<path d="M0 0 C0.66 0 1.32 0 2 0 C1.42647107 3.87132028 -0.48704352 6.08172796 -3 9 C-3.99 8.67 -4.98 8.34 -6 8 C-5.04956626 6.66102417 -4.08940853 5.32894573 -3.125 4 C-2.59132813 3.2575 -2.05765625 2.515 -1.5078125 1.75 C-1.01023437 1.1725 -0.51265625 0.595 0 0 Z " fill="#E4E4E3" transform="translate(280,425)"/>
<path d="M0 0 C0.99 0 1.98 0 3 0 C1.25 5.75 1.25 5.75 -1 8 C-1.66 8 -2.32 8 -3 8 C-1.125 2.25 -1.125 2.25 0 0 Z " fill="#DFDFDE" transform="translate(669,400)"/>
<path d="M0 0 C0.93423645 3.01031744 1.04449911 3.86650268 0 7 C-0.66 7 -1.32 7 -2 7 C-2 8.32 -2 9.64 -2 11 C-2.99 11.33 -3.98 11.66 -5 12 C-3.68938409 7.76570244 -2.05643741 3.92592596 0 0 Z " fill="#161616" transform="translate(448,649)"/>
<path d="M0 0 C0.33 0 0.66 0 1 0 C1.02688151 1.64574566 1.04634123 3.29161413 1.0625 4.9375 C1.07410156 5.85402344 1.08570313 6.77054688 1.09765625 7.71484375 C1 10 1 10 0 11 C-1.99958364 11.04080783 -4.00045254 11.04254356 -6 11 C-5.34 10.01 -4.68 9.02 -4 8 C-2.68 8 -1.36 8 0 8 C0 5.36 0 2.72 0 0 Z " fill="#B0AFAF" transform="translate(203,634)"/>
<path d="M0 0 C3.63 0 7.26 0 11 0 C11 0.33 11 0.66 11 1 C8.69 1.33 6.38 1.66 4 2 C4 2.99 4 3.98 4 5 C3.34 5 2.68 5 2 5 C2 4.34 2 3.68 2 3 C1.01 2.67 0.02 2.34 -1 2 C-0.67 1.34 -0.34 0.68 0 0 Z " fill="#F2F1F1" transform="translate(633,565)"/>
<path d="M0 0 C1.98567708 0.09765625 3.97135417 0.1953125 5.95703125 0.29296875 C5.95703125 1.28296875 5.95703125 2.27296875 5.95703125 3.29296875 C2.32703125 3.29296875 -1.30296875 3.29296875 -5.04296875 3.29296875 C-2.04296875 0.29296875 -2.04296875 0.29296875 0 0 Z " fill="#E1DFDF" transform="translate(641.04296875,563.70703125)"/>
<path d="M0 0 C-1.95216435 1.95216435 -3.53199953 2.84826645 -6 4 C-6 4.33 -6 4.66 -6 5 C-7.65 5 -9.3 5 -11 5 C-10 2 -10 2 -7.75 0.8125 C-5.00208853 0.00061706 -2.84552111 -0.16260121 0 0 Z " fill="#E2E1DF" transform="translate(871,525)"/>
<path d="M0 0 C-0.33 1.98 -0.66 3.96 -1 6 C-3.475 5.01 -3.475 5.01 -6 4 C-5.67 3.01 -5.34 2.02 -5 1 C-3 0 -3 0 0 0 Z " fill="#090808" transform="translate(462,521)"/>
<path d="M0 0 C1 2 1 2 0.58203125 3.91015625 C0.32808594 4.62042969 0.07414062 5.33070313 -0.1875 6.0625 C-0.54908203 7.13177734 -0.54908203 7.13177734 -0.91796875 8.22265625 C-2 10 -2 10 -6 11 C-4.02 7.37 -2.04 3.74 0 0 Z " fill="#252424" transform="translate(468,503)"/>
<path d="M0 0 C-2.90600261 1.25664978 -4.79604584 2 -8 2 C-8 2.66 -8 3.32 -8 4 C-9.65 3.67 -11.3 3.34 -13 3 C-8.8341563 0.22277086 -4.9360889 -1.89849573 0 0 Z " fill="#1D1E1D" transform="translate(313,496)"/>
<path d="M0 0 C1.39195915 4.17587745 -0.17676781 6.13474776 -2 10 C-2.33 9.34 -2.66 8.68 -3 8 C-2.67 7.01 -2.34 6.02 -2 5 C-2.99 4.67 -3.98 4.34 -5 4 C-4.01 3.01 -3.02 2.02 -2 1 C-1.67 1.33 -1.34 1.66 -1 2 C-0.67 1.34 -0.34 0.68 0 0 Z " fill="#F1F1F0" transform="translate(562,488)"/>
<path d="M0 0 C2.52588702 2.36292656 3.88820837 3.66462511 5 7 C2.69 6.34 0.38 5.68 -2 5 C-1.34 3.35 -0.68 1.7 0 0 Z " fill="#191818" transform="translate(682,459)"/>
<path d="M0 0 C0.66 1.32 1.32 2.64 2 4 C1.34 4 0.68 4 0 4 C0.20625 4.598125 0.4125 5.19625 0.625 5.8125 C1 8 1 8 -1 11 C-2.26264601 6.70700357 -1.62950412 4.12168689 0 0 Z " fill="#141414" transform="translate(390,427)"/>
<path d="M0 0 C1.53690745 2.41040161 2.09752136 3.50082285 1.5390625 6.359375 C1.23742187 7.14828125 0.93578125 7.9371875 0.625 8.75 C0.32851563 9.54921875 0.03203125 10.3484375 -0.2734375 11.171875 C-0.51320313 11.77515625 -0.75296875 12.3784375 -1 13 C-3 10 -3 10 -2.5390625 7.51953125 C-2.23742187 6.62621094 -1.93578125 5.73289062 -1.625 4.8125 C-1.32851563 3.91144531 -1.03203125 3.01039063 -0.7265625 2.08203125 C-0.48679687 1.39496094 -0.24703125 0.70789063 0 0 Z " fill="#131312" transform="translate(352,413)"/>
<path d="M0 0 C-1.75 2.0625 -1.75 2.0625 -4 4 C-6.1875 3.875 -6.1875 3.875 -8 3 C-8.33 2.34 -8.66 1.68 -9 1 C-2.25 -1.125 -2.25 -1.125 0 0 Z " fill="#E3E3E2" transform="translate(344,709)"/>
<path d="M0 0 C0.66 0.33 1.32 0.66 2 1 C0.375 3.0625 0.375 3.0625 -2 5 C-5.25 4.75 -5.25 4.75 -8 4 C-5.31143836 2.20762558 -3.0466145 1.01553817 0 0 Z " fill="#141413" transform="translate(203,531)"/>
<path d="M0 0 C0.99 0.33 1.98 0.66 3 1 C3 4.96 3 8.92 3 13 C2.67 13 2.34 13 2 13 C0.54815522 8.46298506 -0.23509196 4.81938524 0 0 Z " fill="#D5D4D4" transform="translate(592,514)"/>
<path d="M0 0 C0.66 0.33 1.32 0.66 2 1 C2 1.66 2 2.32 2 3 C1.34 3 0.68 3 0 3 C0 5.31 0 7.62 0 10 C-0.99 9.67 -1.98 9.34 -3 9 C-2.01 6.03 -1.02 3.06 0 0 Z " fill="#191918" transform="translate(385,443)"/>
<path d="M0 0 C0.99 0 1.98 0 3 0 C2.34 2.64 1.68 5.28 1 8 C0.01 8 -0.98 8 -2 8 C-1.47731534 5.23723823 -0.89130413 2.6739124 0 0 Z " fill="#E5E5E4" transform="translate(385,434)"/>
<path d="M0 0 C0.33 0.66 0.66 1.32 1 2 C1.66 2 2.32 2 3 2 C2.67 3.32 2.34 4.64 2 6 C2.99 6.33 3.98 6.66 5 7 C3.68 7 2.36 7 1 7 C0.67 8.32 0.34 9.64 0 11 C0.020625 10.05125 0.04125 9.1025 0.0625 8.125 C0.22551826 5.09333717 0.22551826 5.09333717 -1 3 C-0.67 2.01 -0.34 1.02 0 0 Z " fill="#DCDCDB" transform="translate(678,417)"/>
<path d="M0 0 C-2.95070119 1.96713413 -4.53581611 2.65358161 -8 3 C-8.99 2.34 -9.98 1.68 -11 1 C-6.87831311 -0.62950412 -4.29299643 -1.26264601 0 0 Z " fill="#E2E2E1" transform="translate(375,608)"/>
<path d="M0 0 C2.31 0 4.62 0 7 0 C7 0.99 7 1.98 7 3 C6.34 3.66 5.68 4.32 5 5 C5 4.34 5 3.68 5 3 C3.02 3 1.04 3 -1 3 C-0.67 2.01 -0.34 1.02 0 0 Z " fill="#D9D9D8" transform="translate(535,573)"/>
<path d="M0 0 C0.33 0 0.66 0 1 0 C1 1.65 1 3.3 1 5 C1.66 5.33 2.32 5.66 3 6 C2.34 6 1.68 6 1 6 C1.33 6.99 1.66 7.98 2 9 C1.01 9.33 0.02 9.66 -1 10 C-2.46726798 6.18510326 -1.43336419 3.70988378 0 0 Z " fill="#E1E0DF" transform="translate(457,536)"/>
<path d="M0 0 C0.66 0.33 1.32 0.66 2 1 C2 1.66 2 2.32 2 3 C1.34 3 0.68 3 0 3 C0.33 4.32 0.66 5.64 1 7 C0.34 7 -0.32 7 -1 7 C-1.33 7.99 -1.66 8.98 -2 10 C-3 8 -3 8 -2.44140625 6.0546875 C-2.15136719 5.33539062 -1.86132812 4.61609375 -1.5625 3.875 C-1.27503906 3.15054688 -0.98757813 2.42609375 -0.69140625 1.6796875 C-0.46324219 1.12539063 -0.23507812 0.57109375 0 0 Z " fill="#191919" transform="translate(363,512)"/>
<path d="M0 0 C0.99 0 1.98 0 3 0 C2.34 2.31 1.68 4.62 1 7 C0.01 7 -0.98 7 -2 7 C-1.125 2.25 -1.125 2.25 0 0 Z " fill="#E4E3E2" transform="translate(430,490)"/>
<path d="M0 0 C-0.25 2.375 -0.25 2.375 -1 5 C-3.0625 6.3125 -3.0625 6.3125 -5 7 C-5.33 6.01 -5.66 5.02 -6 4 C-2.25 0 -2.25 0 0 0 Z " fill="#1C1C1B" transform="translate(330,489)"/>
<path d="M0 0 C0.99 0 1.98 0 3 0 C3 1.32 3 2.64 3 4 C2.34 4 1.68 4 1 4 C1 5.65 1 7.3 1 9 C0.34 9 -0.32 9 -1 9 C-0.67 6.03 -0.34 3.06 0 0 Z " fill="#1A1A19" transform="translate(862,481)"/>
<path d="M0 0 C0.33 0.66 0.66 1.32 1 2 C-3.625 6.875 -3.625 6.875 -7 8 C-6.67 6.68 -6.34 5.36 -6 4 C-5.38125 3.896875 -4.7625 3.79375 -4.125 3.6875 C-1.63473516 3.12474627 -1.63473516 3.12474627 0 0 Z " fill="#F3F4F3" transform="translate(367,359)"/>
<path d="M0 0 C0 0.33 0 0.66 0 1 C-2.31 1.66 -4.62 2.32 -7 3 C-7 3.33 -7 3.66 -7 4 C-8.65 4 -10.3 4 -12 4 C-10 1 -10 1 -8.25 0.3125 C-5.48083033 -0.0721069 -2.79197653 -0.06345401 0 0 Z " fill="#E5E4E2" transform="translate(543,598)"/>
<path d="M0 0 C3.34373475 0.55728913 6.03312999 1.35173889 9 3 C9 3.66 9 4.32 9 5 C5.51694958 4.35499066 2.93797836 2.95865224 0 1 C0 0.67 0 0.34 0 0 Z " fill="#181818" transform="translate(319,594)"/>
<path d="M0 0 C0.66 0 1.32 0 2 0 C2 2.64 2 5.28 2 8 C1.01 8 0.02 8 -1 8 C-1.125 2.25 -1.125 2.25 0 0 Z " fill="#E2E1DF" transform="translate(350,554)"/>
<path d="M0 0 C0 0.66 0 1.32 0 2 C-5.625 5 -5.625 5 -9 5 C-8.67 4.01 -8.34 3.02 -8 2 C-7.01 2.33 -6.02 2.66 -5 3 C-5 2.34 -5 1.68 -5 1 C-2 0 -2 0 0 0 Z " fill="#111110" transform="translate(565,513)"/>
<path d="M0 0 C-1.50223584 4.20626034 -4.28550034 5.73900021 -8 8 C-6.65580512 3.85539913 -4.87800266 0 0 0 Z " fill="#161615" transform="translate(888,490)"/>
<path d="M0 0 C0.66 1.32 1.32 2.64 2 4 C1.01 5.32 0.02 6.64 -1 8 C-1.625 5.6875 -1.625 5.6875 -2 3 C-1.34 2.01 -0.68 1.02 0 0 Z " fill="#E3E2E1" transform="translate(216,595)"/>
<path d="M0 0 C-3.18762365 2.12508244 -5.26512223 2.5020163 -9 3 C-9 2.01 -9 1.02 -9 0 C-5.67465243 -1.10844919 -3.37817425 -0.84454356 0 0 Z " fill="#E4E4E2" transform="translate(419,594)"/>
<path d="M0 0 C5.41538462 -0.36923077 5.41538462 -0.36923077 8.375 1.5 C8.91125 1.995 9.4475 2.49 10 3 C7.03 3 4.06 3 1 3 C0.67 2.01 0.34 1.02 0 0 Z " fill="#191817" transform="translate(842,588)"/>
<path d="M0 0 C2.08954032 4.17908064 2.16552619 4.80410573 1 9 C0.34 9 -0.32 9 -1 9 C-0.67 6.03 -0.34 3.06 0 0 Z " fill="#191A19" transform="translate(353,550)"/>
<path d="M0 0 C1.125 1.625 1.125 1.625 2 4 C1.125 7.25 1.125 7.25 0 10 C-0.99 10 -1.98 10 -3 10 C-3 9.34 -3 8.68 -3 8 C-2.34 8 -1.68 8 -1 8 C-1.020625 7.05125 -1.04125 6.1025 -1.0625 5.125 C-1 2 -1 2 0 0 Z " fill="#E4E3E2" transform="translate(492,530)"/>
<path d="M0 0 C0.99 0 1.98 0 3 0 C3.33 0.99 3.66 1.98 4 3 C2.68 4.32 1.36 5.64 0 7 C-1.04449911 3.86650268 -0.93423645 3.01031744 0 0 Z " fill="#E2E2E1" transform="translate(318,528)"/>
<path d="M0 0 C0.33 0 0.66 0 1 0 C1 2.31 1 4.62 1 7 C0.01 6.01 -0.98 5.02 -2 4 C-1.34 2.68 -0.68 1.36 0 0 Z M-3 4 C-2.34 4.33 -1.68 4.66 -1 5 C-1 5.66 -1 6.32 -1 7 C-1.99 7 -2.98 7 -4 7 C-3.67 6.01 -3.34 5.02 -3 4 Z " fill="#141313" transform="translate(652,510)"/>
<path d="M0 0 C0.99 0 1.98 0 3 0 C2.74438677 2.3431213 2.40729228 4.67843403 2 7 C1.01 7.495 1.01 7.495 0 8 C-0.79953138 4.71303767 -1.09658936 3.28976808 0 0 Z " fill="#E1E0DF" transform="translate(324,507)"/>
<path d="M0 0 C2 2 2 2 2.046875 3.91015625 C1.94890625 4.62042969 1.8509375 5.33070313 1.75 6.0625 C1.61851562 7.13177734 1.61851562 7.13177734 1.484375 8.22265625 C1.32453125 8.80917969 1.1646875 9.39570313 1 10 C0.01 10.495 0.01 10.495 -1 11 C-1.125 3.375 -1.125 3.375 0 0 Z " fill="#E4E3E2" transform="translate(525,489)"/>
<path d="M0 0 C0.33 0.66 0.66 1.32 1 2 C1.99 2.33 2.98 2.66 4 3 C3.67 3.66 3.34 4.32 3 5 C-0.0625 5.625 -0.0625 5.625 -3 6 C-2.01 4.02 -1.02 2.04 0 0 Z " fill="#181818" transform="translate(296,466)"/>
<path d="M0 0 C0.66 0.66 1.32 1.32 2 2 C1.7578125 4.1640625 1.7578125 4.1640625 1.125 6.625 C0.92132812 7.44226563 0.71765625 8.25953125 0.5078125 9.1015625 C0.34023438 9.72804688 0.17265625 10.35453125 0 11 C-0.33 11 -0.66 11 -1 11 C-1.125 3.375 -1.125 3.375 0 0 Z " fill="#151515" transform="translate(755,444)"/>
<path d="M0 0 C0.66 0.99 1.32 1.98 2 3 C1.125 5.6875 1.125 5.6875 0 8 C-0.99 8 -1.98 8 -3 8 C-1.125 2.25 -1.125 2.25 0 0 Z " fill="#E4E3E1" transform="translate(661,417)"/>
<path d="M0 0 C0.99 0.495 0.99 0.495 2 1 C2 1.66 2 2.32 2 3 C2.66 3 3.32 3 4 3 C4.33 4.98 4.66 6.96 5 9 C4.67 8.34 4.34 7.68 4 7 C3.34 7 2.68 7 2 7 C0.5393715 4.35261084 0 3.10551666 0 0 Z " fill="#161616" transform="translate(897,368)"/>
<path d="M0 0 C0 0.99 0 1.98 0 3 C-2.875 3.125 -2.875 3.125 -6 3 C-6.66 2.34 -7.32 1.68 -8 1 C-5.23735711 0.40267181 -2.83967231 0 0 0 Z " fill="#191918" transform="translate(362,739)"/>
<path d="M0 0 C-0.33 0.66 -0.66 1.32 -1 2 C-3.3140622 2.73075648 -5.64828869 3.40138258 -8 4 C-8 3.01 -8 2.02 -8 1 C-5.29120665 -0.35439668 -2.99066732 -0.06501451 0 0 Z " fill="#111211" transform="translate(374,605)"/>
<path d="M0 0 C0.99 0.33 1.98 0.66 3 1 C2.34 3.31 1.68 5.62 1 8 C-1 5 -1 5 -0.625 2.3125 C-0.41875 1.549375 -0.2125 0.78625 0 0 Z " fill="#E4E4E3" transform="translate(482,560)"/>
<path d="M0 0 C0.99 0 1.98 0 3 0 C2.25 2.4375 2.25 2.4375 1 5 C-1.125 5.8125 -1.125 5.8125 -3 6 C-2.01 4.02 -1.02 2.04 0 0 Z " fill="#E4E4E2" transform="translate(185,560)"/>
<path d="M0 0 C0.99 0 1.98 0 3 0 C3.33 1.32 3.66 2.64 4 4 C2.68 4.99 1.36 5.98 0 7 C-0.93423645 3.98968256 -1.04449911 3.13349732 0 0 Z " fill="#E2E2E1" transform="translate(453,547)"/>
<path d="M0 0 C0.66 0.33 1.32 0.66 2 1 C0.375 6.75 0.375 6.75 -3 9 C-2.01 6.03 -1.02 3.06 0 0 Z " fill="#161616" transform="translate(558,505)"/>
<path d="M0 0 C0.66 0.33 1.32 0.66 2 1 C-0.475 4.465 -0.475 4.465 -3 8 C-4 5 -4 5 -3 2 C-2.01 1.34 -1.02 0.68 0 0 Z " fill="#141414" transform="translate(583,489)"/>
<path d="M0 0 C1.98 0.495 1.98 0.495 4 1 C4 2.32 4 3.64 4 5 C2.35 5 0.7 5 -1 5 C-0.67 3.35 -0.34 1.7 0 0 Z " fill="#DFDFDE" transform="translate(751,463)"/>
<path d="M0 0 C2.97 0.495 2.97 0.495 6 1 C5.01 2.32 4.02 3.64 3 5 C1.5 3.625 1.5 3.625 0 2 C0 1.34 0 0.68 0 0 Z " fill="#191817" transform="translate(798,432)"/>
<path d="M0 0 C1 2 1 2 0.1875 5.5625 C-1 9 -1 9 -3 10 C-2.25 3.375 -2.25 3.375 0 0 Z " fill="#F4F4F3" transform="translate(744,393)"/>
<path d="M0 0 C0.66 0.33 1.32 0.66 2 1 C0.75 3.9375 0.75 3.9375 -1 7 C-3.1875 7.875 -3.1875 7.875 -5 8 C-3.62845496 5.04590299 -2.01136276 2.55991624 0 0 Z " fill="#272727" transform="translate(853,394)"/>
<path d="M0 0 C0.66 0 1.32 0 2 0 C1.34 2.31 0.68 4.62 0 7 C-0.99 7 -1.98 7 -3 7 C-1.125 2.25 -1.125 2.25 0 0 Z " fill="#121211" transform="translate(780,379)"/>
</svg>
